<svg xmlns="http://www.w3.org/2000/svg" width="49" height="75"><g fill="#FFF" fill-rule="evenodd"><path stroke="#FFF" stroke-width="1.4" d="M47.9 2s-.7 2.6-.7 4.6c0 2 .7 4.6.7 4.6s-3.7-1.5-5-4.6c1.3-3 5-4.6 5-4.6zM6 2s-.7 2.6-.7 4.6c0 2 .7 4.6.7 4.6S2.4 9.7 1 6.6C2.4 3.6 6 2 6 2zM27 2s-.7 2.6-.7 4.6c0 2 .7 4.6.7 4.6s-3.7-1.5-5-4.6c1.3-3 5-4.6 5-4.6zm20.9 41.7s-.7 2.7-.7 4.7.7 4.6.7 4.6-3.7-1.5-5-4.6c1.3-3.1 5-4.7 5-4.7zM6 43.7s-.7 2.7-.7 4.7S6 53 6 53 2.4 51.5 1 48.4c1.4-3.1 5-4.7 5-4.7zM47.9 23s-.7 2.6-.7 4.6c0 2 .7 4.6.7 4.6s-3.7-1.5-5-4.6c1.3-3.1 5-4.6 5-4.6zM6 22.9s-.7 2.6-.7 4.6c0 2 .7 4.6.7 4.6S2.4 30.6 1 27.5c1.4-3.1 5-4.6 5-4.6zm41.8 41.7s-.7 2.7-.7 4.6c0 2 .7 4.7.7 4.7s-3.7-1.6-5-4.7c1.3-3 5-4.6 5-4.6zm-21 0s-.6 2.7-.6 4.6c0 2 .7 4.7.7 4.7s-3.7-1.6-5-4.7c1.3-3 5-4.6 5-4.6zm-20.8 0s-.7 2.7-.7 4.6c0 2 .7 4.7.7 4.7S2.4 72.3 1 69.2c1.4-3 5-4.6 5-4.6zm31.3-52s-.7 2.6-.7 4.5c0 2 .7 4.7.7 4.7s-3.7-1.6-5-4.7c1.3-3 5-4.6 5-4.6zm-20.9 0s-.7 2.6-.7 4.5c0 2 .7 4.7.7 4.7s-3.7-1.6-5-4.7c1.3-3 5-4.6 5-4.6zm21 41.7s-.8 2.6-.8 4.6c0 2 .7 4.6.7 4.6s-3.7-1.5-5-4.6c1.3-3.1 5-4.6 5-4.6zm-21 0s-.7 2.6-.7 4.6c0 2 .7 4.6.7 4.6s-3.7-1.5-5-4.6c1.3-3.1 5-4.6 5-4.6z"/><path d="M33.8 37.5a1 1 0 0 1-1-1c0-.5.5-.9 1-.9s1 .4 1 1a1 1 0 0 1-1 .9M21.3 22.3s1.6 6.2 2.2 12.1c-3.2-3.6-7.4-5.3-7.4-5.3s1.4 5.2 1.4 9.2-1.4 9.2-1.4 9.2 4.1-1.8 7.3-5.3c-.6 5.7-2.1 11.5-2.1 11.5s12.3-5.2 17-15.7c-4.7-10.5-17-15.7-17-15.7"/></g></svg>