<svg xmlns="http://www.w3.org/2000/svg" width="42" height="42"><g fill="none" fill-rule="evenodd" transform="translate(1 1)"><path fill="#FFF" fill-rule="nonzero" d="M29 14.7a7.4 7.4 0 0 1-2.1.6 3.7 3.7 0 0 0 1.6-2 7.4 7.4 0 0 1-2.3.9 3.7 3.7 0 0 0-2.7-1.2 3.7 3.7 0 0 0-3.7 3.7v.8a10.5 10.5 0 0 1-7.5-3.8 3.7 3.7 0 0 0-.5 1.8c0 1.3.6 2.5 1.6 3.1a3.7 3.7 0 0 1-1.7-.4 3.7 3.7 0 0 0 3 3.6 3.8 3.8 0 0 1-1.7.1 3.7 3.7 0 0 0 3.5 2.6 7.4 7.4 0 0 1-4.6 1.6 8 8 0 0 1-.9 0 10.4 10.4 0 0 0 5.7 1.6c6.8 0 10.5-5.7 10.5-10.6v-.4a7.4 7.4 0 0 0 1.8-2z"/><circle cx="20" cy="20" r="20" stroke="#FFF"/></g></svg>