<svg xmlns="http://www.w3.org/2000/svg" width="34" height="50"><defs><linearGradient id="a" x1="98.6%" x2="0%" y1="50%" y2="50%"><stop offset="0%" stop-color="#46DCC0"/><stop offset="100%" stop-color="#52A6C4"/></linearGradient><linearGradient id="b" x1="100%" x2="0%" y1="50%" y2="50%"><stop offset="0%" stop-color="#46DCC0"/><stop offset="100%" stop-color="#52A6C4"/></linearGradient></defs><g fill="none" fill-rule="evenodd"><path fill="url(#a)" stroke="url(#b)" stroke-width=".9" d="M31.4 0s-.5 1.8-.5 3c0 1.4.5 3.2.5 3.2S28.9 5.2 28 3C29 1 31.4 0 31.4 0zm-28 0s-.5 1.8-.5 3c0 1.4.5 3.2.5 3.2S.9 5.2 0 3C1 1 3.4 0 3.4 0zm14 0s-.5 1.8-.5 3c0 1.4.5 3.2.5 3.2S14.9 5.2 14 3C15 1 17.4 0 17.4 0zm14 27.8s-.5 1.8-.5 3.1.5 3 .5 3-2.5-1-3.4-3c1-2 3.4-3 3.4-3zm-28 0s-.5 1.8-.5 3.1.5 3 .5 3S.9 33 0 31c1-2 3.4-3 3.4-3zm28-13.9s-.5 1.8-.5 3.1.5 3 .5 3-2.5-1-3.4-3c1-2 3.4-3 3.4-3zm-28 0s-.5 1.8-.5 3.1.5 3 .5 3S.9 19 0 17c1-2 3.4-3 3.4-3zm28 27.8s-.5 1.8-.5 3.1.5 3.1.5 3.1-2.5-1-3.4-3c1-2.1 3.4-3.2 3.4-3.2zm-14 0s-.5 1.8-.5 3.1.5 3.1.5 3.1-2.5-1-3.4-3c1-2.1 3.4-3.2 3.4-3.2zm-14 0s-.5 1.8-.5 3.1.5 3.1.5 3.1S.9 47 0 45c1-2.1 3.4-3.2 3.4-3.2zM24.4 7s-.5 1.8-.5 3c0 1.4.5 3.2.5 3.2s-2.5-1-3.4-3.1c1-2 3.4-3 3.4-3zm-14 0s-.5 1.8-.5 3c0 1.4.5 3.2.5 3.2S7.9 12.2 7 10c1-2 3.4-3 3.4-3zm14 27.8s-.5 1.8-.5 3.1.5 3.1.5 3.1-2.5-1-3.4-3c1-2.1 3.4-3.2 3.4-3.2zm-14 0s-.5 1.8-.5 3.1.5 3.1.5 3.1-2.5-1-3.4-3c1-2.1 3.4-3.2 3.4-3.2z" transform="translate(1 1)"/><path fill="#ED4240" d="M23 24.6a.6.6 0 0 1-.7-.6c0-.3.3-.6.7-.6a.6.6 0 0 1 .6.6.6.6 0 0 1-.6.6m-8.4-10s1 4 1.5 8c-2.2-2.4-5-3.6-5-3.6s1 3.6 1 6.2-1 6.1-1 6.1 2.8-1.1 5-3.5c-.5 3.8-1.5 7.7-1.5 7.7S22.9 32 25.9 25c-3-7-11.3-10.4-11.3-10.4"/></g></svg>