<svg xmlns="http://www.w3.org/2000/svg" width="20" height="16"><g fill="#FFF"><path d="M1.92 4.87a553.37 553.37 0 0 0 5.2 3.63 33.03 33.03 0 0 1 1.08.76l.58.36c.23.14.44.24.64.3.2.07.4.1.56.1H10c.18 0 .36-.03.56-.1.2-.06.42-.16.64-.3a12.57 12.57 0 0 0 1.19-.78l.47-.34 5.22-3.63a5.3 5.3 0 0 0 1.36-1.37c.36-.53.54-1.1.54-1.68 0-.5-.17-.91-.53-1.26A1.72 1.72 0 0 0 18.2.03H1.78c-.57 0-1 .2-1.32.58C.16 1 0 1.48 0 2.06c0 .47.2.98.61 1.52.41.55.85.98 1.3 1.3z"/><path d="M18.87 6.07a236.65 236.65 0 0 0-6.59 4.57 6.37 6.37 0 0 1-1.05.54c-.44.18-.85.27-1.23.27h-.02a3.2 3.2 0 0 1-1.23-.27 6.37 6.37 0 0 1-1.05-.54 26.41 26.41 0 0 1-1.03-.73c-1-.73-2.85-2.02-5.54-3.85A5.9 5.9 0 0 1 0 5.1v8.85c0 .5.17.91.52 1.26s.77.52 1.26.52H18.2c.5 0 .91-.17 1.26-.52s.53-.77.53-1.26V5.09a6.15 6.15 0 0 1-1.12.97z"/></g></svg>