<svg xmlns="http://www.w3.org/2000/svg" width="37" height="114"><defs><linearGradient id="a" x1="0%" y1="100%" y2="18.72%"><stop offset="0%" stop-color="#46DCC0"/><stop offset="100%" stop-color="#52A6C4"/></linearGradient></defs><path fill="url(#a)" fill-rule="evenodd" d="m233.52 1593.4-.19.03a34.54 34.54 0 0 0 2.6-2.6c.48.44.85.84.85 1.09.05 1.7-1.93 1.32-3.26 1.49zm-5.45.66a57.68 57.68 0 0 1 6.2-4.6c.32.25.72.57 1.11.9a34.18 34.18 0 0 1-3.34 3.23l-2.55.3-1.42.17zm-4.62.56a59.36 59.36 0 0 0 8.5-7.32l1.74 1.66a58.39 58.39 0 0 0-6.91 5.26l-3.33.4zm-.42-3.3 7.37-5.51 1.02.98a58.46 58.46 0 0 1-8.99 7.67l.6-3.14zm.56-2.94 5.27-4.04 1 .96-6.62 4.96.35-1.88zm.66-3.4 3.23-1.96.85.81-4.53 3.48.45-2.33zm.81-4.27 1.87 1.79-2.5 1.51.63-3.3zm-32.72 28.16c2.81 4.51 2 12.86-4.28 14.05-3.6.69-6.87-2.2-8.03-5.37-1.43-3.9-.38-8.22 1.36-11.85a28.05 28.05 0 0 1 1.8-3.2c3.68.97 7.14 3.15 9.15 6.37zm43.83-20.6.47-.28c.4-.23.04-.87-.37-.63l-.66.4-3.58-3.42c-.02-.2-.17-.36-.35-.34l-1.33-1.27a.36.36 0 0 0-.15-.14l-5.06-4.84c-.55-.53-1.67-.36-1.83.48l-1.8 9.39c-11.3-3.98-24.18-1.32-33.43 6.22a33.66 33.66 0 0 0-5.88 6.18c-8.2-1.24-16.89 3.47-22.44 10.14-11 13.2-14.44 31.9-11.16 48.5.27 1.38 2.38.8 2.1-.59a58.6 58.6 0 0 1 4.41-36.42c4.48-9.4 13-20.3 24.58-19.7.38.02.76.06 1.15.1a25.4 25.4 0 0 0-3.28 8.04c-1.18 5.64.6 12.42 6.53 14.58 4.92 1.8 9.58-1.4 11.33-6 1.94-5.13 0-10.62-3.97-14.18a18.01 18.01 0 0 0-6.87-3.93 31.15 31.15 0 0 1 5.7-5.67c8.74-6.67 20.45-8.81 30.82-5.1l-.79 4.13a.97.97 0 0 0-1 .77l-.29 1.15c-.15.61.32 1.47 1.06 1.38l4.06-.49c-.17.33.28.73.58.42l.58-.56 8.22-.99c1.7-.2 4.83-.05 5.74-1.95 1.05-2.18-1.57-4.04-3.1-5.37z" transform="scale(1 -1) rotate(-53 -1572.72 944.47)"/></svg>