<svg xmlns="http://www.w3.org/2000/svg" width="23" height="111"><defs><linearGradient id="a" x1="100%" x2="0%" y1="50%" y2="14.87%"><stop offset="0%" stop-color="#46DCC0"/><stop offset="100%" stop-color="#52A6C4"/></linearGradient></defs><path fill="url(#a)" fill-rule="evenodd" d="m141.76 1426.55-1.07-2.4 4.18-6.13 3.83.55-6.94 7.98m-4.28-9.59 3.44.5-1.9 2.94-1.54-3.44m6.41.92-3.63 5.32-.81-1.84 2.44-3.76 2 .28m97.76 5.54c-27.84 17.8-65.07 17.08-92.3-1.55l2.89-3.32c.58-.67.49-2.08-.59-2.24l-16-2.3c-1.19-.16-2 .85-1.5 1.97l3.15 7.07c-.19.29.02.56.28.63l2.26 5.08-.67.78c-1.13 1.29.75 3.19 1.88 1.89l.23-.27c.9.31 2.14-.73 1.67-1.92l4.64-5.34c28 19.43 66.68 20.18 95.4 1.83 1.45-.92.11-3.23-1.34-2.3" transform="scale(1 -1) rotate(87 881.66 592.77)"/></svg>